PathFileType	4	(X/Y/Z)	RBDS010\RBDS010runT35.trc
DataRate	CameraRate	NumFrames	NumMarkers	Units	OrigDataRate	OrigDataStartFrame	OrigNumFrames
150.000000	150.000000	4	32	mm	150.000000	2250	4500
Frame#	Time	L.ASIS			L.Heel.Bottom			L.Heel.Lateral			L.Heel.Top			L.Iliac.Crest			L.MT5			L.PSIS			L.Shank.Bottom.Lateral			L.Shank.Bottom.Medial			L.Shank.Top.Lateral			L.Shank.Top.Medial			L.Thigh.Bottom.Lateral			L.Thigh.Bottom.Medial			L.Thigh.Top.Lateral			L.Thigh.Top.Medial			R.ASIS			R.ASY			R.Heel.Bottom			R.Heel.Lateral			R.Heel.Top			R.Iliac.Crest			R.MT1			R.MT5			R.PSIS			R.Shank.Bottom.Lateral			R.Shank.Bottom.Medial			R.Shank.Top.Lateral			R.Shank.Top.Medial			R.Thigh.Bottom.Lateral			R.Thigh.Bottom.Medial			R.Thigh.Top.Lateral			R.Thigh.Top.Medial			
		X1	Y1	Z1	X2	Y2	Z2	X3	Y3	Z3	X4	Y4	Z4	X5	Y5	Z5	X6	Y6	Z6	X7	Y7	Z7	X8	Y8	Z8	X9	Y9	Z9	X10	Y10	Z10	X11	Y11	Z11	X12	Y12	Z12	X13	Y13	Z13	X14	Y14	Z14	X15	Y15	Z15	X16	Y16	Z16	X17	Y17	Z17	X18	Y18	Z18	X19	Y19	Z19	X20	Y20	Z20	X21	Y21	Z21	X22	Y22	Z22	X23	Y23	Z23	X24	Y24	Z24	X25	Y25	Z25	X26	Y26	Z26	X27	Y27	Z27	X28	Y28	Z28	X29	Y29	Z29	X30	Y30	Z30	X31	Y31	Z31	X32	Y32	Z32	

2251	15	2398.383130149577	900.4137256079783	886.6861569798222	1864.283331513818	490.6787245071043	927.4086086054778	1868.737422059962	455.2073413369468	883.997428130102	1910.818248805907	469.2508286843673	925.2409268552937	2362.707336545742	991.7716936438707	849.6600584088345	1825.111073797711	298.09387759046	876.6976051019359	2229.510721836748	963.2157091843417	942.8117796393971	1973.869225371938	418.5386776491658	874.6983800812917	1972.659168577509	451.8561478080558	917.5671937621073	2052.415520800335	432.453650772268	864.9636615912543	2051.944896110678	467.0700042666683	906.1784896515737	2296.758346433066	505.8858724892913	845.8126685518273	2242.98353971416	502.240321530948	894.8812979860955	2275.013818736851	613.218746856169	833.2868675482968	2225.156592323513	610.5201485154588	880.1182182193928	2383.08268303912	917.4169037480043	1116.492946669951	2388.662653714509	81.09851617227443	1031.542787104766	2212.949193658925	31.40263538196441	989.9201365965381	2230.294673279053	49.56165756873494	1039.211484626911	2225.453879205731	79.6730880696724	992.6828903493366	2312.462846453489	989.5119827310344	1151.94960733295	2430.911972050486	36.5255468457524	986.8840817668523	2385.555069842603	38.97743171105501	1097.651461566114	2220.677752336587	968.9458970971739	1040.731728495253	2312.745080961275	161.9590610578616	1067.463554156237	2273.512059052387	181.8729724922455	1039.938328756477	2332.162501446997	240.8301320055595	1092.375486293385	2291.862404143338	258.2401108003297	1060.40083735326	2386.458690266828	550.9415976186824	1144.966466461159	2332.713429206267	531.1073005621632	1099.052322025253	2334.96319168419	646.7803860278394	1159.639373717773	2283.348341135515	628.6183621221689	1118.033762797512	
2252	15.00666666666667	2395.036944157939	899.001550865278	885.6210147537229	1877.152727263634	487.5069859730803	925.4072589387822	1884.56952582336	452.7036358976832	881.9582687229024	1924.346955450813	467.6568801157005	925.0254577212137	2357.428355103375	989.6048654621975	848.8337024469961	1846.591582912049	294.4282227805185	872.4602332164059	2226.806139516698	962.4545047148066	943.7211025657472	1990.397698966804	417.2669573213482	873.9512464389412	1989.14849405457	450.7090824799907	916.5903651540767	2069.069196903474	430.945475126739	864.6151728708304	2068.538475052859	465.5117278921196	905.8545555505311	2309.199621854597	504.6696960480274	845.2186368526186	2255.241025882475	498.6448164599457	893.7291778033093	2282.907655069417	610.9411435717727	832.4331349990116	2232.831130824913	605.9905468930158	878.7399461935271	2381.716306550834	915.714067170402	1116.094521319674	2365.350120834333	81.22665501308772	1031.963676628026	2189.477650591569	32.00089943368155	990.6554765302943	2206.960244131542	50.01823281905123	1039.927750915134	2202.123775839495	80.19140778922271	993.4931971130109	2311.007189266549	987.2471517863427	1152.500969053242	2407.25536390106	36.68918920108118	987.2012234634385	2362.168722494237	38.99051500147198	1097.924475053611	2219.110585727642	968.7928366806455	1041.453464854182	2292.568140559763	162.3240405397214	1068.319735745286	2253.675129184634	183.4212079677447	1041.182888245193	2314.670342927653	240.5926407328311	1093.221964909638	2274.634936299229	259.135323947182	1061.568842361295	2377.854699437575	548.6401448403718	1145.593920416172	2323.2526858495	529.8498616276433	1100.179157204221	2328.611807564452	645.6007041412843	1160.389171160397	2276.262335596312	628.5107979344111	1119.201518791516	
2253	15.01333333333333	2391.742986671194	898.3566755622204	884.3508763370123	1889.704368272806	482.7916027362264	923.2169044917448	1900.299529668277	448.7668560811247	879.8392882021601	1937.606728449524	464.8365393085796	924.6696985716382	2352.026145051901	988.4643409140717	848.0687581013071	1869.100964156319	289.3014719851227	868.4793582628255	2224.34959825675	962.5060532565354	944.6487094573737	2006.983828001717	415.249431894308	873.2276773666243	2005.427859991707	448.8268440401203	915.6184084372404	2085.661284654585	429.2467756999578	864.2800825892126	2084.800504405352	463.7958235738172	905.5037121605338	2321.828411457624	504.7385039738923	844.7594711517871	2267.834935061571	496.3170372913689	892.7460099412687	2290.91351463092	609.7075991928915	831.6320859264881	2240.74658820122	602.4716457797272	877.4284085107872	2380.541185142301	914.4993685077313	1115.409538809395	2342.151819569038	81.49249194080396	1032.733857429063	2166.110034378308	32.88017181814129	991.4878957982037	2183.712792130491	50.600307031108	1040.794237360594	2178.914638858428	80.96855542860321	994.5402744510827	2310.159800976015	986.0429434848159	1152.948209985563	2383.681337621877	36.99859366906738	987.6879347261616	2338.835149528869	38.8689146757503	1098.349568929234	2217.831036369699	969.4246183168489	1042.278821250015	2271.96219527113	162.8495259392953	1069.413381332528	2233.474043882635	184.9673765902427	1042.542499948067	2296.357475453952	240.4830316887038	1094.276332395093	2256.696265025252	259.9923229800974	1062.802420076039	2368.01709040888	546.6655620376196	1146.334198112682	2312.541734986835	529.1055674712385	1101.404948798119	2321.39839633658	644.8866265239698	1161.149327697546	2268.331923387048	629.062014019767	1120.34180735661	
2254	15.02	2388.636411085943	898.4544325487983	883.0387648290493	1901.99014518195	476.5471405209329	920.9648357418058	1915.847924080658	443.4521938419273	877.7429241804042	1950.601000224334	460.7605300610588	924.2050671952767	2346.8321281429	988.3255920301804	847.4371246963951	1892.376947305394	282.8974544834269	864.8090585188334	2222.179632857661	963.2986537236609	945.5522856381198	2023.498897457017	412.4812267981152	872.538939259277	2021.367967606503	446.1943265599655	914.6777837131127	2102.049261791529	427.3639939293018	863.9532366839243	2100.587562288404	461.9294492152534	905.1200257310292	2334.469832498834	506.092746200576	844.4628260896369	2280.610167359295	495.287510802603	891.9967050680752	2298.916792236244	609.5290949916141	830.9324670845923	2248.806319463324	600.0059373350662	876.2664797287588	2379.511984237157	913.7687012704826	1114.572657894204	2319.029091788903	81.88003657818706	1033.722043717345	2142.772000902831	34.1131529222309	992.3658986828152	2160.489878529075	51.4167802080667	1041.746241160696	2155.786623419662	82.08153237933467	995.7253411751453	2309.93711854505	985.8979409511269	1153.278038404044	2360.132143061816	37.38337474889561	988.2644789621207	2315.479414859231	38.66270396854996	1098.867666699255	2216.810763690486	970.73464726512	1043.166725650261	2250.938864820059	163.5875988060752	1070.606374233579	2212.896043685191	186.5849054039425	1043.89204390916	2277.287816083282	240.5819937213645	1095.413859992075	2238.080552823571	260.9236136616639	1063.998462970957	2357.070700567132	545.1029138308279	1147.080351854656	2300.741637959631	528.9656629686049	1102.597557975294	2313.410034392674	644.6740376862549	1161.843047719848	2259.677398952863	630.3074209557778	1121.35585286416	
